<?xml version="1.0" encoding="UTF-8" standalone="no"?>
<!-- Created by AtomCrusher for the English Wikipedia -->

<svg
   xmlns:dc="http://purl.org/dc/elements/1.1/"
   xmlns:cc="http://creativecommons.org/ns#"
   xmlns:rdf="http://www.w3.org/1999/02/22-rdf-syntax-ns#"
   xmlns:svg="http://www.w3.org/2000/svg"
   xmlns="http://www.w3.org/2000/svg"
   xmlns:sodipodi="http://sodipodi.sourceforge.net/DTD/sodipodi-0.dtd"
   xmlns:inkscape="http://www.inkscape.org/namespaces/inkscape"
   version="1.1"
   width="128"
   height="128"
   id="svg6"
   sodipodi:docname="vscode-wasm-logo.svg"
   inkscape:version="0.92.3 (3ce5693, 2018-03-11)">
  <metadata
     id="metadata12">
    <rdf:RDF>
      <cc:Work
         rdf:about="">
        <dc:format>image/svg+xml</dc:format>
        <dc:type
           rdf:resource="http://purl.org/dc/dcmitype/StillImage" />
        <dc:title></dc:title>
      </cc:Work>
    </rdf:RDF>
  </metadata>
  <defs
     id="defs10" />
  <sodipodi:namedview
     pagecolor="#ffffff"
     bordercolor="#666666"
     borderopacity="1"
     objecttolerance="10"
     gridtolerance="10"
     guidetolerance="10"
     inkscape:pageopacity="0"
     inkscape:pageshadow="2"
     inkscape:window-width="1371"
     inkscape:window-height="868"
     id="namedview8"
     showgrid="false"
     fit-margin-top="0"
     fit-margin-left="0"
     fit-margin-right="0"
     fit-margin-bottom="0"
     inkscape:zoom="1.0907007"
     inkscape:cx="177.54774"
     inkscape:cy="46.765063"
     inkscape:window-x="346"
     inkscape:window-y="160"
     inkscape:window-maximized="0"
     inkscape:current-layer="svg6"
     borderlayer="false" />
  <!-- Block -->
  <!-- Letters -->
  <g
     id="g847"
     transform="matrix(0.15080966,0,0,0.15080966,171.1566,19.751503)">
    <path
       id="path24"
       d="M -922.73047,-74.113281 -1134.918,293.40625 -922.73047,660.92578 h 424.37695 l 212.1875,-367.51953 -212.1875,-367.519531 h -141.96093 a 71,71 0 0 1 -70.22852,61.146484 71,71 0 0 1 -70.23633,-61.146484 z"
       style="fill:#654ff0;fill-opacity:1;stroke:none;stroke-width:3;stroke-linecap:round;stroke-linejoin:round;stroke-miterlimit:4;stroke-dasharray:none;stroke-opacity:1"
       inkscape:connector-curvature="0" />
    <path
       style="fill:#ffffff;stroke-width:1.10619509"
       inkscape:connector-curvature="0"
       id="path4"
       d="m -888.28538,243.57256 h 44.86727 l 30.63054,163.13058 h 0.5531 l 36.81417,-163.13058 h 41.96904 l 33.25222,165.1328 h 0.65266 l 34.91151,-165.1328 h 44.00444 l -57.17922,239.7014 H -722.334 l -32.97567,-163.13058 h -0.86284 l -35.29868,163.13058 h -45.354 z m 318.24125,0 h 70.73011 l 70.24339,239.7014 h -46.2832 l -15.27656,-53.34072 h -80.57524 l -11.79204,53.34072 h -45.07745 z m 26.92479,59.08188 -19.56859,87.9425 h 60.9071 l -22.46683,-87.9425 z" />
  </g>
</svg>
